<?xml version="1.0" standalone="no"?>
<!DOCTYPE svg PUBLIC "-//W3C//DTD SVG 20010904//EN"
 "http://www.w3.org/TR/2001/REC-SVG-20010904/DTD/svg10.dtd">
<svg version="1.0" xmlns="http://www.w3.org/2000/svg"
 width="490.000000pt" height="490.000000pt" viewBox="0 0 490.000000 490.000000"
 preserveAspectRatio="xMidYMid meet">
<metadata>
Created by potrace 1.11, written by Peter Selinger 2001-2013
</metadata>
<g transform="translate(0.000000,490.000000) scale(0.100000,-0.100000)"
fill="#000000" stroke="none">
<path d="M0 2445 l0 -2445 2450 0 2450 0 0 2445 0 2445 -2450 0 -2450 0 0
-2445z m4520 5 l0 -2070 -2070 0 -2070 0 0 2070 0 2070 2070 0 2070 0 0 -2070z"/>
<path d="M2958 3382 l-188 -2 0 -440 c0 -253 -4 -440 -9 -440 -10 0 -36 31
-121 140 -62 79 -116 147 -240 298 -47 57 -92 115 -101 129 -9 13 -50 63 -90
111 -41 47 -74 89 -74 92 0 3 -20 29 -44 58 l-44 52 -154 0 -153 0 0 -771 c0
-512 3 -777 10 -790 10 -18 23 -19 195 -19 l185 0 0 440 c0 242 3 440 8 439 4
0 22 -19 40 -42 18 -23 67 -84 110 -136 42 -52 102 -126 132 -166 59 -77 94
-121 151 -188 20 -23 49 -60 65 -82 16 -22 71 -91 123 -153 l94 -113 151 3
151 3 3 784 c1 432 -1 787 -5 790 -5 3 -92 5 -195 3z"/>
</g>
</svg>
